# xmcd
# Track frame offsets:
# 150
# 15954
# 32792
# 50865
# 68719
# 81076
# 94678
# 110710
# 127041
# 138534
# 153958
# 165118
#
# Disc length: 2432 seconds
# Revision: 0
# Processed by: cddbd v1.4PL0 Copyright (c) Steve Scherf et al.
# Submitted via: VisiTrax 2.9.5.181 - For more info visit www.synapsa.com
#
DISCID=96097e0c
DTITLE=Various Artisits - Ultimate country Hits Volume 4 cd1
DYEAR=2003
DGENRE=Coumtry
TTITLE0=Toby Keith - Should've been a cowboy
TTITLE1=Dwight Yoakam - Things change
TTITLE2=Travis Tritt - Help me Hold on
TTITLE3=Chad Brock - Ordinary Life
TTITLE4=Neal McCoy - Wink
TTITLE5=David Ball - Thinkin Problem
TTITLE6=Lila McCann - With you
TTITLE7=Tracy Lawrence - Sticks and Stones
TTITLE8=Bryan White - So Much for Pretending
TTITLE9=George Jones - Choices
TTITLE10=Patty LOveless - Chains
TTITLE11=The Wilkinsons - 26 cents
EXTD=
EXTT0=
EXTT1=
EXTT2=
EXTT3=
EXTT4=
EXTT5=
EXTT6=
EXTT7=
EXTT8=
EXTT9=
EXTT10=
EXTT11=
PLAYORDER=
